<svg width="500" height="500" viewBox="0 0 500 500" fill="none" xmlns="http://www.w3.org/2000/svg">
<path d="M368.008 81L409.818 108.873L303.683 251.028L263.483 223.656L368.008 81Z" fill="black"/>
<path d="M223.881 111.661H278.144L278.144 230.123L396.606 230.123L396.606 281.688H282.86C282.86 281.688 306.208 281.688 280.931 281.688C223.881 281.688 223.88 239.878 223.881 184.131C223.882 128.385 223.881 111.661 223.881 111.661Z" fill="black"/>
<path d="M225 293.374C224.996 295.018 238 301.874 246.5 304.874C255 307.874 274.5 309 274.5 309V409.374L225 409.374C225 409.374 225.019 285.346 225 293.374Z" fill="#1E9BDE"/>
<path d="M92 232H199.5C199.5 232 199.637 243.688 203.068 257.086C206.5 270.484 214 282.172 214 282.172H92V232Z" fill="#1E9BDE"/>
</svg>
