<svg width="397" height="96" viewBox="0 0 397 96" fill="none" xmlns="http://www.w3.org/2000/svg">
<g clip-path="url(#clip0_202_2)">
<path d="M247.737 26.8421C247.737 21.6228 249.023 17 251.595 12.9737C254.242 8.8728 258.025 5.70394 262.941 3.4671C267.858 1.1557 273.645 0 280.301 0C288.773 0 293.579 0 299.743 0C307.762 0 304.47 0 310.38 0V14.875C306.834 14.875 300.519 14.875 297.379 14.875C294.238 14.875 285.445 14.875 280.755 14.875C275.687 14.875 271.867 15.8443 269.295 17.7829C266.799 19.6469 265.551 22.4057 265.551 26.0592C265.551 29.5636 266.875 32.2478 269.522 34.1118C272.17 35.9758 276.822 37.5044 283.478 38.6973C294.144 40.5614 301.897 43.8048 306.738 48.4276C311.579 53.0504 314 59.4627 314 67.6644C314 73.0328 312.525 77.8793 309.575 82.2039C306.7 86.4539 302.616 89.7718 297.321 92.1578C292.101 94.5438 286.164 95.7367 279.507 95.7367C270.279 95.7367 262.601 93.8727 256.474 90.1446C250.347 86.4166 244.193 77.0685 243.011 67.7483L261.205 67.7483C262.566 72.0729 263.454 74.3521 267.009 76.589C270.565 78.8258 273.947 80.8618 279.394 80.8618C284.84 80.8618 288.962 79.7806 291.761 77.6183C294.636 75.3815 296.073 72.2126 296.073 68.1118C296.073 64.2346 294.56 61.1776 291.534 58.9407C288.584 56.7039 283.44 54.9144 276.103 53.5723C266.421 51.8574 259.273 48.8004 254.658 44.4013C250.044 40.0022 247.737 34.1491 247.737 26.8421Z" fill="black"/>
<path d="M231.276 1.45392V94.1709H213.462V54H190.288C190.288 54 180.317 54 172.275 54V94.1709H154.461V1.45392H172.275V38.2499H190.288H213.462V1.45392H231.276Z" fill="black"/>
<path d="M112.465 57.4868V94.1709H94.6509V57.5986L62.7676 1.45392H82.8507L104.009 41.9408L125.059 1.45392H144.348L112.465 57.4868Z" fill="black"/>
<path d="M59.8145 78.5V94.1709L0 93.5V56V1.45392H17.8138V33V78.5H59.8145Z" fill="black"/>
<path d="M358.318 74.9091V12H372.591V74.9091H358.318ZM334 50.5909V36.3182H396.909V50.5909H334Z" fill="black"/>
</g>
<defs>
<clipPath id="clip0_202_2">
<rect width="397" height="96" fill="white"/>
</clipPath>
</defs>
</svg>
