<svg width="500" height="147" viewBox="0 0 500 147" fill="none" xmlns="http://www.w3.org/2000/svg">
<g clip-path="url(#clip0_95_130)">
<path d="M481.023 0L500 11.9689L451.827 73.01L433.581 61.2563L481.023 0Z" fill="black"/>
<path d="M415.607 13.1656H440.236L440.236 64.0333L494.004 64.0333L494.004 86.1757H442.377C442.377 86.1757 452.974 86.1757 441.501 86.1757C415.607 86.1757 415.607 68.2224 415.607 44.2847C415.607 20.347 415.607 13.1656 415.607 13.1656Z" fill="black"/>
<rect x="416.832" y="94.5539" width="22.7724" height="45.4817" fill="#1E9BDE"/>
<rect x="354.839" y="64.6317" width="53.1356" height="21.5439" fill="#1E9BDE"/>
<path d="M258.144 53.8421C258.144 48.6228 259.484 44 262.164 39.9737C264.923 35.8728 268.864 32.7039 273.987 30.4671C279.11 28.1557 285.14 27 292.076 27C300.904 27 305.912 27 312.334 27C320.691 27 317.261 27 323.418 27V41.875C319.724 41.875 313.144 41.875 309.871 41.875C306.599 41.875 297.436 41.875 292.549 41.875C287.268 41.875 283.288 42.8443 280.608 44.7829C278.007 46.6469 276.706 49.4057 276.706 53.0592C276.706 56.5636 278.086 59.2478 280.844 61.1118C283.603 62.9758 288.451 64.5044 295.387 65.6973C306.5 67.5614 314.579 70.8048 319.624 75.4276C324.668 80.0504 327.191 86.4627 327.191 94.6644C327.191 100.033 325.654 104.879 322.58 109.204C319.585 113.454 315.328 116.772 309.811 119.158C304.372 121.544 298.185 122.737 291.249 122.737C281.633 122.737 273.632 120.873 267.248 117.145C260.864 113.417 254.451 104.068 253.219 94.7483L272.178 94.7483C273.596 99.0729 274.521 101.352 278.226 103.589C281.93 105.826 285.455 107.862 291.13 107.862C296.805 107.862 301.101 106.781 304.018 104.618C307.013 102.381 308.51 99.2126 308.51 95.1118C308.51 91.2346 306.934 88.1776 303.781 85.9407C300.707 83.7039 295.347 81.9144 287.702 80.5723C277.613 78.8574 270.164 75.8004 265.356 71.4013C260.548 67.0022 258.144 61.1491 258.144 53.8421Z" fill="black"/>
<path d="M240.992 28.4539V121.171H222.429C222.429 121.171 222.429 100.396 222.429 94.5713C222.429 88.746 212.038 79.9012 198.282 79.9012C184.525 79.9012 187.892 79.9012 179.512 79.9012V121.171H160.95V28.4539H179.512V65.2499C179.512 65.2499 179.524 65.2499 198.282 65.2499C217.039 65.2499 222.429 73.6008 222.429 73.6008V28.4539H240.992Z" fill="black"/>
<path d="M117.189 84.4867V121.171H98.627V84.5986L65.4043 28.4539H86.331L108.379 68.9408L130.313 28.4539H150.412L117.189 84.4867Z" fill="black"/>
<path d="M62.3273 104.663V121.171C62.3273 121.171 48.3874 121.171 32.2582 121.171C16.129 121.171 0.000515231 112.306 0.000158533 90.8241C-0.000198166 69.3418 0.000158533 28.4539 0.000158533 28.4539H18.5623C18.5623 28.4539 18.5623 36.8552 18.5623 67.4868C18.5623 98.1183 15.7741 104.663 44 104.663C50.0484 104.663 62.3273 104.663 62.3273 104.663Z" fill="black"/>
</g>
<defs>
<clipPath id="clip0_95_130">
<rect width="500" height="147" fill="white"/>
</clipPath>
</defs>
</svg>
