<svg width="500" height="179" viewBox="0 0 500 179" fill="none" xmlns="http://www.w3.org/2000/svg">
<rect width="500" height="179" fill="white"/>
<path d="M500 56.092H471.749L465.747 85.6388H447.681L454.017 56.092H425.766V37.5467L457.073 37.4682L463.334 8H480.552L474.291 37.4682L500 37.5467V56.092Z" fill="black"/>
<path d="M328.101 75.1873C328.101 67.853 329.804 61.3569 333.211 55.699C336.717 49.9363 341.726 45.4834 348.238 42.3401C354.749 39.092 362.413 37.468 371.229 37.468C382.449 37.468 388.814 37.468 396.977 37.468C407.598 37.468 403.238 37.468 411.065 37.468V58.3708C406.369 58.3708 398.006 58.3708 393.846 58.3708C389.687 58.3708 378.041 58.3708 371.83 58.3708C365.118 58.3708 360.059 59.7329 356.653 62.457C353.347 65.0764 351.694 68.9531 351.694 74.0871C351.694 79.0116 353.447 82.7835 356.953 85.4029C360.46 88.0223 366.621 90.1702 375.437 91.8466C389.562 94.466 399.831 99.0237 406.242 105.52C412.654 112.016 415.859 121.027 415.859 132.552C415.859 140.096 413.906 146.906 409.999 152.983C406.192 158.955 400.782 163.618 393.77 166.971C386.857 170.324 378.993 172 370.177 172C357.955 172 347.787 169.381 339.672 164.142C331.558 158.903 323.407 145.767 321.842 132.67L342.377 132.552C344.18 138.629 347.436 143.239 352.145 146.382C356.853 149.526 362.814 151.097 370.027 151.097C377.24 151.097 382.7 149.578 386.406 146.54C390.213 143.396 392.117 138.943 392.117 133.181C392.117 127.732 390.113 123.436 386.106 120.293C382.199 117.15 375.387 114.635 365.669 112.749C352.846 110.34 343.379 106.044 337.268 99.8619C331.157 93.6802 328.101 85.4553 328.101 75.1873Z" fill="black"/>
<path d="M306.3 39.5112V169.8H282.708C282.708 169.8 282.708 140.607 282.708 132.421C282.708 124.235 275.209 111.806 252.016 111.806C228.824 111.806 238.811 111.806 228.16 111.806V169.8H204.567V39.5112H228.16V91.218C228.16 91.218 228.175 91.218 252.016 91.218C275.857 91.218 282.708 102.953 282.708 102.953V39.5112H306.3Z" fill="black"/>
<path d="M148.946 118.25V169.8H125.354V118.407L83.1277 39.5112H109.726L137.748 96.4045L165.626 39.5112H191.172L148.946 118.25Z" fill="black"/>
<path d="M79.2176 149.211L74.985 169.8H0L13.4743 39.5112H35.3887L23.5925 149.211H79.2176Z" fill="black"/>
</svg>
