<svg width="500" height="147" viewBox="0 0 500 147" fill="none" xmlns="http://www.w3.org/2000/svg">
<path d="M247.737 57.8421C247.737 52.6228 249.023 48 251.595 43.9737C254.242 39.8728 258.025 36.7039 262.941 34.4671C267.858 32.1557 273.645 31 280.301 31C288.773 31 293.579 31 299.743 31C307.762 31 304.47 31 310.38 31V45.875C306.834 45.875 300.519 45.875 297.379 45.875C294.238 45.875 285.445 45.875 280.755 45.875C275.687 45.875 271.867 46.8443 269.295 48.7829C266.799 50.6469 265.551 53.4057 265.551 57.0592C265.551 60.5636 266.875 63.2478 269.522 65.1118C272.17 66.9758 276.822 68.5044 283.478 69.6973C294.144 71.5614 301.897 74.8048 306.738 79.4276C311.579 84.0504 314 90.4627 314 98.6644C314 104.033 312.525 108.879 309.575 113.204C306.7 117.454 302.616 120.772 297.321 123.158C292.101 125.544 286.164 126.737 279.507 126.737C270.279 126.737 262.601 124.873 256.474 121.145C250.347 117.417 244.193 108.068 243.011 98.7483L261.205 98.7483C262.566 103.073 263.454 105.352 267.009 107.589C270.565 109.826 273.947 111.862 279.394 111.862C284.84 111.862 288.962 110.781 291.761 108.618C294.636 106.382 296.073 103.213 296.073 99.1118C296.073 95.2346 294.56 92.1776 291.534 89.9407C288.584 87.7039 283.44 85.9144 276.103 84.5723C266.421 82.8574 259.273 79.8004 254.658 75.4013C250.044 71.0022 247.737 65.1491 247.737 57.8421Z" fill="black"/>
<path d="M231.276 32.4539V125.171H213.462C213.462 125.171 213.462 104.396 213.462 98.5713C213.462 92.746 203.489 83.9012 190.288 83.9012C177.086 83.9012 180.317 83.9012 172.275 83.9012V125.171H154.461V32.4539H172.275V69.2499C172.275 69.2499 172.287 69.2499 190.288 69.2499C208.289 69.2499 213.462 77.6008 213.462 77.6008V32.4539H231.276Z" fill="black"/>
<path d="M112.465 88.4867V125.171H94.6509V88.5986L62.7676 32.4539H82.8507L104.009 72.9408L125.059 32.4539H144.348L112.465 88.4867Z" fill="black"/>
<path d="M59.8146 109.5V125.171C59.8146 125.171 68.9523 125.171 42.2261 125.171C15.5 125.171 0.000152141 110.5 0.000152141 87C0.000152141 63.5 0.000152141 32.4539 0.000152141 32.4539H17.814C17.814 32.4539 17.8139 30 17.814 64C17.8141 98 17.8139 109.5 50.9999 109.5C56.8044 109.5 59.8146 109.5 59.8146 109.5Z" fill="black"/>
<path d="M481.845 4L499.999 16.1029L453.914 77.8278L436.459 65.9425L481.845 4Z" fill="black"/>
<path d="M419.264 17.3131H442.826L442.826 68.7505L494.263 68.7505L494.263 91.1409H444.874C444.874 91.1409 455.011 91.1409 444.036 91.1409C419.264 91.1409 419.264 72.9866 419.264 48.7807C419.265 24.5749 419.264 17.3131 419.264 17.3131Z" fill="black"/>
<path d="M419.75 96.2147C419.749 96.9289 425.395 99.9055 429.086 101.208C432.777 102.511 441.244 103 441.244 103V146.583L419.75 146.583C419.75 146.583 419.759 92.7291 419.75 96.2147Z" fill="#1E9BDE"/>
<path d="M362 69.5657H408.678C408.678 69.5657 408.737 74.6409 410.227 80.4584C411.717 86.2758 414.974 91.351 414.974 91.351H362V69.5657Z" fill="#1E9BDE"/>
</svg>
