<svg width="1240" height="1240" viewBox="0 0 1240 1240" fill="none" xmlns="http://www.w3.org/2000/svg">
<g clip-path="url(#clip0_36_3)">
<rect width="1240" height="1240" fill="#FFE3D4"/>
<g filter="url(#filter0_d_36_3)">
<path d="M243 278C243 211.726 296.726 158 363 158H912C978.274 158 1032 211.726 1032 278V1305H243V278Z" fill="#F3F3F3"/>
<path d="M363 173H912C969.99 173 1017 220.01 1017 278V1290H258V278C258 220.01 305.01 173 363 173Z" stroke="white" stroke-width="30"/>
</g>
<rect x="310" y="335" width="233" height="70" fill="url(#paint0_linear_36_3)"/>
<rect x="307" y="570" width="245" height="72" rx="36" fill="url(#paint1_linear_36_3)"/>
<rect x="595" y="570" width="222" height="72" rx="36" fill="#E6E6E6"/>
<rect x="307" y="454" width="663" height="72" rx="36" fill="white"/>
<path d="M850 606C850 586.118 866.118 570 886 570H1002V642H886C866.118 642 850 625.882 850 606V606Z" fill="#E6E6E6"/>
<line x1="273" y1="948.5" x2="1002" y2="948.5" stroke="#D7D7D7" stroke-opacity="0.39" stroke-width="3"/>
<line x1="273" y1="684.5" x2="1002" y2="684.5" stroke="#D7D7D7" stroke-opacity="0.39" stroke-width="3"/>
<line x1="273" y1="1224.5" x2="1002" y2="1224.5" stroke="#D7D7D7" stroke-opacity="0.39" stroke-width="3"/>
<circle cx="346.5" cy="488.5" r="10" stroke="#DFDFDF" stroke-width="3"/>
<path d="M358.153 503.652C358.769 504.206 359.718 504.156 360.272 503.54C360.826 502.924 360.775 501.976 360.159 501.422L358.153 503.652ZM351.997 498.115L358.153 503.652L360.159 501.422L354.003 495.885L351.997 498.115Z" fill="#DFDFDF"/>
<rect x="317" y="732" width="233" height="29" fill="url(#paint2_linear_36_3)"/>
<rect x="317" y="780" width="644" height="29" fill="url(#paint3_linear_36_3)"/>
<rect x="317" y="823" width="569" height="29" fill="url(#paint4_linear_36_3)"/>
<rect x="317" y="866" width="609" height="29" fill="url(#paint5_linear_36_3)"/>
<rect x="317" y="1001" width="233" height="29" fill="url(#paint6_linear_36_3)"/>
<rect x="317" y="1049" width="644" height="29" fill="url(#paint7_linear_36_3)"/>
<rect x="317" y="1092" width="569" height="29" fill="url(#paint8_linear_36_3)"/>
<rect x="317" y="1135" width="609" height="29" fill="url(#paint9_linear_36_3)"/>
<rect x="561" y="225" width="154" height="50" rx="25" fill="white"/>
<rect x="570" y="232" width="35" height="35" rx="17.5" fill="#F3F3F3"/>
</g>
<defs>
<filter id="filter0_d_36_3" x="193" y="108" width="889" height="1247" filterUnits="userSpaceOnUse" color-interpolation-filters="sRGB">
<feFlood flood-opacity="0" result="BackgroundImageFix"/>
<feColorMatrix in="SourceAlpha" type="matrix" values="0 0 0 0 0 0 0 0 0 0 0 0 0 0 0 0 0 0 127 0" result="hardAlpha"/>
<feOffset/>
<feGaussianBlur stdDeviation="25"/>
<feComposite in2="hardAlpha" operator="out"/>
<feColorMatrix type="matrix" values="0 0 0 0 1 0 0 0 0 0.283333 0 0 0 0 0 0 0 0 0.12 0"/>
<feBlend mode="normal" in2="BackgroundImageFix" result="effect1_dropShadow_36_3"/>
<feBlend mode="normal" in="SourceGraphic" in2="effect1_dropShadow_36_3" result="shape"/>
</filter>
<linearGradient id="paint0_linear_36_3" x1="310" y1="370" x2="543" y2="370" gradientUnits="userSpaceOnUse">
<stop stop-color="#D9D9D9"/>
<stop offset="1" stop-color="#F0F0F0"/>
</linearGradient>
<linearGradient id="paint1_linear_36_3" x1="314.448" y1="570" x2="544.553" y2="642" gradientUnits="userSpaceOnUse">
<stop stop-color="#FFDBBD"/>
<stop offset="1" stop-color="#CFE0FF"/>
</linearGradient>
<linearGradient id="paint2_linear_36_3" x1="317" y1="746.5" x2="550" y2="746.5" gradientUnits="userSpaceOnUse">
<stop stop-color="#D9D9D9"/>
<stop offset="1" stop-color="#F0F0F0"/>
</linearGradient>
<linearGradient id="paint3_linear_36_3" x1="317" y1="794.5" x2="961" y2="794.5" gradientUnits="userSpaceOnUse">
<stop stop-color="#D9D9D9"/>
<stop offset="1" stop-color="#F0F0F0"/>
</linearGradient>
<linearGradient id="paint4_linear_36_3" x1="317" y1="837.5" x2="886" y2="837.5" gradientUnits="userSpaceOnUse">
<stop stop-color="#D9D9D9"/>
<stop offset="1" stop-color="#F0F0F0"/>
</linearGradient>
<linearGradient id="paint5_linear_36_3" x1="317" y1="880.5" x2="926" y2="880.5" gradientUnits="userSpaceOnUse">
<stop stop-color="#D9D9D9"/>
<stop offset="1" stop-color="#F0F0F0"/>
</linearGradient>
<linearGradient id="paint6_linear_36_3" x1="317" y1="1015.5" x2="550" y2="1015.5" gradientUnits="userSpaceOnUse">
<stop stop-color="#D9D9D9"/>
<stop offset="1" stop-color="#F0F0F0"/>
</linearGradient>
<linearGradient id="paint7_linear_36_3" x1="317" y1="1063.5" x2="961" y2="1063.5" gradientUnits="userSpaceOnUse">
<stop stop-color="#D9D9D9"/>
<stop offset="1" stop-color="#F0F0F0"/>
</linearGradient>
<linearGradient id="paint8_linear_36_3" x1="317" y1="1106.5" x2="886" y2="1106.5" gradientUnits="userSpaceOnUse">
<stop stop-color="#D9D9D9"/>
<stop offset="1" stop-color="#F0F0F0"/>
</linearGradient>
<linearGradient id="paint9_linear_36_3" x1="317" y1="1149.5" x2="926" y2="1149.5" gradientUnits="userSpaceOnUse">
<stop stop-color="#D9D9D9"/>
<stop offset="1" stop-color="#F0F0F0"/>
</linearGradient>
<clipPath id="clip0_36_3">
<rect width="1240" height="1240" fill="white"/>
</clipPath>
</defs>
</svg>
